<svg width="48" height="47" xmlns="http://www.w3.org/2000/svg"><g fill-rule="nonzero" fill="none"><path d="M.981 16.733s-1.143-.823.229-1.923l3.195-2.858s.914-.962 1.88-.123l29.486 22.323v10.705s-.014 1.681-2.171 1.495L.981 16.733z" fill="#2489CA"/><path d="M8.581 23.633l-7.6 6.91s-.781.58 0 1.619l3.529 3.21s.838.9 2.076-.124l8.057-6.11-6.062-5.505z" fill="#1070B3"/><path d="M21.924 23.69l13.938-10.642-.09-10.648S35.175.076 33.19 1.286l-18.547 16.88 7.28 5.524z" fill="#0877B9"/><path d="M33.6 46.367c.81.828 1.79.557 1.79.557l10.862-5.353c1.39-.947 1.196-2.123 1.196-2.123V7.486c0-1.405-1.438-1.89-1.438-1.89l-9.415-4.539c-2.057-1.271-3.405.229-3.405.229S34.924.038 35.771 2.4v42.262c0 .29-.061.576-.185.833-.248.5-.786.967-2.076.772l.09.1z" fill="#3C99D4"/></g></svg>